<mxfile host="app.diagrams.net" agent="Mozilla/5.0 (X11; Ubuntu; Linux x86_64; rv:137.0) Gecko/20100101 Firefox/137.0" version="27.0.2">
  <diagram name="Page-1" id="XJ4LuH7A2adHzsDturFl">
    <mxGraphModel dx="806" dy="483" grid="1" gridSize="10" guides="1" tooltips="1" connect="1" arrows="1" fold="1" page="1" pageScale="1" pageWidth="850" pageHeight="1100" math="0" shadow="0">
      <root>
        <mxCell id="0" />
        <mxCell id="1" parent="0" />
        <mxCell id="qc9Q0B2m5h8A3anUrLEf-53" value="None" style="shape=partialRectangle;html=1;whiteSpace=wrap;connectable=0;strokeColor=inherit;overflow=hidden;fillColor=none;top=0;left=0;bottom=0;right=0;pointerEvents=1;rowspan=1;colspan=3;" parent="1" vertex="1">
          <mxGeometry x="240" y="370" width="470" height="40" as="geometry">
            <mxRectangle width="50" height="40" as="alternateBounds" />
          </mxGeometry>
        </mxCell>
        <mxCell id="qc9Q0B2m5h8A3anUrLEf-1" value="" style="shape=table;startSize=0;container=1;collapsible=0;childLayout=tableLayout;" parent="1" vertex="1">
          <mxGeometry x="140" y="90" width="580" height="570" as="geometry" />
        </mxCell>
        <mxCell id="qc9Q0B2m5h8A3anUrLEf-2" value="" style="shape=tableRow;horizontal=0;startSize=0;swimlaneHead=0;swimlaneBody=0;strokeColor=inherit;top=0;left=0;bottom=0;right=0;collapsible=0;dropTarget=0;fillColor=none;points=[[0,0.5],[1,0.5]];portConstraint=eastwest;" parent="qc9Q0B2m5h8A3anUrLEf-1" vertex="1">
          <mxGeometry width="580" height="40" as="geometry" />
        </mxCell>
        <mxCell id="qc9Q0B2m5h8A3anUrLEf-3" value="Use Case ID" style="shape=partialRectangle;html=1;whiteSpace=wrap;connectable=0;strokeColor=inherit;overflow=hidden;fillColor=none;top=0;left=0;bottom=0;right=0;pointerEvents=1;fontStyle=1" parent="qc9Q0B2m5h8A3anUrLEf-2" vertex="1">
          <mxGeometry width="102" height="40" as="geometry">
            <mxRectangle width="102" height="40" as="alternateBounds" />
          </mxGeometry>
        </mxCell>
        <mxCell id="qc9Q0B2m5h8A3anUrLEf-4" value="2" style="shape=partialRectangle;html=1;whiteSpace=wrap;connectable=0;strokeColor=inherit;overflow=hidden;fillColor=none;top=0;left=0;bottom=0;right=0;pointerEvents=1;" parent="qc9Q0B2m5h8A3anUrLEf-2" vertex="1">
          <mxGeometry x="102" width="51" height="40" as="geometry">
            <mxRectangle width="51" height="40" as="alternateBounds" />
          </mxGeometry>
        </mxCell>
        <mxCell id="qc9Q0B2m5h8A3anUrLEf-5" value="Use Case name" style="shape=partialRectangle;html=1;whiteSpace=wrap;connectable=0;strokeColor=inherit;overflow=hidden;fillColor=none;top=0;left=0;bottom=0;right=0;pointerEvents=1;fontStyle=1" parent="qc9Q0B2m5h8A3anUrLEf-2" vertex="1">
          <mxGeometry x="153" width="101" height="40" as="geometry">
            <mxRectangle width="101" height="40" as="alternateBounds" />
          </mxGeometry>
        </mxCell>
        <mxCell id="qc9Q0B2m5h8A3anUrLEf-6" value="Explore Products" style="shape=partialRectangle;html=1;whiteSpace=wrap;connectable=0;strokeColor=inherit;overflow=hidden;fillColor=none;top=0;left=0;bottom=0;right=0;pointerEvents=1;" parent="qc9Q0B2m5h8A3anUrLEf-2" vertex="1">
          <mxGeometry x="254" width="326" height="40" as="geometry">
            <mxRectangle width="326" height="40" as="alternateBounds" />
          </mxGeometry>
        </mxCell>
        <mxCell id="1W595ZxKduhl0e_D_6Cj-1" style="shape=tableRow;horizontal=0;startSize=0;swimlaneHead=0;swimlaneBody=0;strokeColor=inherit;top=0;left=0;bottom=0;right=0;collapsible=0;dropTarget=0;fillColor=none;points=[[0,0.5],[1,0.5]];portConstraint=eastwest;" vertex="1" parent="qc9Q0B2m5h8A3anUrLEf-1">
          <mxGeometry y="40" width="580" height="40" as="geometry" />
        </mxCell>
        <mxCell id="1W595ZxKduhl0e_D_6Cj-2" value="Description" style="shape=partialRectangle;html=1;whiteSpace=wrap;connectable=0;strokeColor=inherit;overflow=hidden;fillColor=none;top=0;left=0;bottom=0;right=0;pointerEvents=1;fontStyle=1" vertex="1" parent="1W595ZxKduhl0e_D_6Cj-1">
          <mxGeometry width="102" height="40" as="geometry">
            <mxRectangle width="102" height="40" as="alternateBounds" />
          </mxGeometry>
        </mxCell>
        <mxCell id="1W595ZxKduhl0e_D_6Cj-3" value="Allows user to browse available products" style="shape=partialRectangle;html=1;whiteSpace=wrap;connectable=0;strokeColor=inherit;overflow=hidden;fillColor=none;top=0;left=0;bottom=0;right=0;pointerEvents=1;rowspan=1;colspan=3;" vertex="1" parent="1W595ZxKduhl0e_D_6Cj-1">
          <mxGeometry x="102" width="478" height="40" as="geometry">
            <mxRectangle width="51" height="40" as="alternateBounds" />
          </mxGeometry>
        </mxCell>
        <mxCell id="1W595ZxKduhl0e_D_6Cj-4" style="shape=partialRectangle;html=1;whiteSpace=wrap;connectable=0;strokeColor=inherit;overflow=hidden;fillColor=none;top=0;left=0;bottom=0;right=0;pointerEvents=1;" vertex="1" visible="0" parent="1W595ZxKduhl0e_D_6Cj-1">
          <mxGeometry x="153" width="101" height="40" as="geometry">
            <mxRectangle width="101" height="40" as="alternateBounds" />
          </mxGeometry>
        </mxCell>
        <mxCell id="1W595ZxKduhl0e_D_6Cj-5" style="shape=partialRectangle;html=1;whiteSpace=wrap;connectable=0;strokeColor=inherit;overflow=hidden;fillColor=none;top=0;left=0;bottom=0;right=0;pointerEvents=1;" vertex="1" visible="0" parent="1W595ZxKduhl0e_D_6Cj-1">
          <mxGeometry x="254" width="326" height="40" as="geometry">
            <mxRectangle width="326" height="40" as="alternateBounds" />
          </mxGeometry>
        </mxCell>
        <mxCell id="qc9Q0B2m5h8A3anUrLEf-7" value="" style="shape=tableRow;horizontal=0;startSize=0;swimlaneHead=0;swimlaneBody=0;strokeColor=inherit;top=0;left=0;bottom=0;right=0;collapsible=0;dropTarget=0;fillColor=none;points=[[0,0.5],[1,0.5]];portConstraint=eastwest;" parent="qc9Q0B2m5h8A3anUrLEf-1" vertex="1">
          <mxGeometry y="80" width="580" height="40" as="geometry" />
        </mxCell>
        <mxCell id="qc9Q0B2m5h8A3anUrLEf-8" value="Actor" style="shape=partialRectangle;html=1;whiteSpace=wrap;connectable=0;strokeColor=inherit;overflow=hidden;fillColor=none;top=0;left=0;bottom=0;right=0;pointerEvents=1;fontStyle=1" parent="qc9Q0B2m5h8A3anUrLEf-7" vertex="1">
          <mxGeometry width="102" height="40" as="geometry">
            <mxRectangle width="102" height="40" as="alternateBounds" />
          </mxGeometry>
        </mxCell>
        <mxCell id="qc9Q0B2m5h8A3anUrLEf-9" value="Customer" style="shape=partialRectangle;html=1;whiteSpace=wrap;connectable=0;strokeColor=inherit;overflow=hidden;fillColor=none;top=0;left=0;bottom=0;right=0;pointerEvents=1;rowspan=1;colspan=3;" parent="qc9Q0B2m5h8A3anUrLEf-7" vertex="1">
          <mxGeometry x="102" width="478" height="40" as="geometry">
            <mxRectangle width="51" height="40" as="alternateBounds" />
          </mxGeometry>
        </mxCell>
        <mxCell id="qc9Q0B2m5h8A3anUrLEf-10" value="" style="shape=partialRectangle;html=1;whiteSpace=wrap;connectable=0;strokeColor=inherit;overflow=hidden;fillColor=none;top=0;left=0;bottom=0;right=0;pointerEvents=1;" parent="qc9Q0B2m5h8A3anUrLEf-7" vertex="1" visible="0">
          <mxGeometry x="153" width="101" height="40" as="geometry">
            <mxRectangle width="101" height="40" as="alternateBounds" />
          </mxGeometry>
        </mxCell>
        <mxCell id="qc9Q0B2m5h8A3anUrLEf-11" value="" style="shape=partialRectangle;html=1;whiteSpace=wrap;connectable=0;strokeColor=inherit;overflow=hidden;fillColor=none;top=0;left=0;bottom=0;right=0;pointerEvents=1;" parent="qc9Q0B2m5h8A3anUrLEf-7" vertex="1" visible="0">
          <mxGeometry x="254" width="326" height="40" as="geometry">
            <mxRectangle width="326" height="40" as="alternateBounds" />
          </mxGeometry>
        </mxCell>
        <mxCell id="1W595ZxKduhl0e_D_6Cj-6" style="shape=tableRow;horizontal=0;startSize=0;swimlaneHead=0;swimlaneBody=0;strokeColor=inherit;top=0;left=0;bottom=0;right=0;collapsible=0;dropTarget=0;fillColor=none;points=[[0,0.5],[1,0.5]];portConstraint=eastwest;" vertex="1" parent="qc9Q0B2m5h8A3anUrLEf-1">
          <mxGeometry y="120" width="580" height="40" as="geometry" />
        </mxCell>
        <mxCell id="1W595ZxKduhl0e_D_6Cj-7" value="Pre-Condition" style="shape=partialRectangle;html=1;whiteSpace=wrap;connectable=0;strokeColor=inherit;overflow=hidden;fillColor=none;top=0;left=0;bottom=0;right=0;pointerEvents=1;fontStyle=1" vertex="1" parent="1W595ZxKduhl0e_D_6Cj-6">
          <mxGeometry width="102" height="40" as="geometry">
            <mxRectangle width="102" height="40" as="alternateBounds" />
          </mxGeometry>
        </mxCell>
        <mxCell id="1W595ZxKduhl0e_D_6Cj-8" value="None" style="shape=partialRectangle;html=1;whiteSpace=wrap;connectable=0;strokeColor=inherit;overflow=hidden;fillColor=none;top=0;left=0;bottom=0;right=0;pointerEvents=1;rowspan=1;colspan=3;" vertex="1" parent="1W595ZxKduhl0e_D_6Cj-6">
          <mxGeometry x="102" width="478" height="40" as="geometry">
            <mxRectangle width="51" height="40" as="alternateBounds" />
          </mxGeometry>
        </mxCell>
        <mxCell id="1W595ZxKduhl0e_D_6Cj-9" style="shape=partialRectangle;html=1;whiteSpace=wrap;connectable=0;strokeColor=inherit;overflow=hidden;fillColor=none;top=0;left=0;bottom=0;right=0;pointerEvents=1;" vertex="1" visible="0" parent="1W595ZxKduhl0e_D_6Cj-6">
          <mxGeometry x="153" width="101" height="40" as="geometry">
            <mxRectangle width="101" height="40" as="alternateBounds" />
          </mxGeometry>
        </mxCell>
        <mxCell id="1W595ZxKduhl0e_D_6Cj-10" style="shape=partialRectangle;html=1;whiteSpace=wrap;connectable=0;strokeColor=inherit;overflow=hidden;fillColor=none;top=0;left=0;bottom=0;right=0;pointerEvents=1;" vertex="1" visible="0" parent="1W595ZxKduhl0e_D_6Cj-6">
          <mxGeometry x="254" width="326" height="40" as="geometry">
            <mxRectangle width="326" height="40" as="alternateBounds" />
          </mxGeometry>
        </mxCell>
        <mxCell id="qc9Q0B2m5h8A3anUrLEf-12" value="" style="shape=tableRow;horizontal=0;startSize=0;swimlaneHead=0;swimlaneBody=0;strokeColor=inherit;top=0;left=0;bottom=0;right=0;collapsible=0;dropTarget=0;fillColor=none;points=[[0,0.5],[1,0.5]];portConstraint=eastwest;" parent="qc9Q0B2m5h8A3anUrLEf-1" vertex="1">
          <mxGeometry y="160" width="580" height="40" as="geometry" />
        </mxCell>
        <mxCell id="qc9Q0B2m5h8A3anUrLEf-13" value="Post-Condition" style="shape=partialRectangle;html=1;whiteSpace=wrap;connectable=0;strokeColor=inherit;overflow=hidden;fillColor=none;top=0;left=0;bottom=0;right=0;pointerEvents=1;fontStyle=1" parent="qc9Q0B2m5h8A3anUrLEf-12" vertex="1">
          <mxGeometry width="102" height="40" as="geometry">
            <mxRectangle width="102" height="40" as="alternateBounds" />
          </mxGeometry>
        </mxCell>
        <mxCell id="qc9Q0B2m5h8A3anUrLEf-14" value="&lt;div align=&quot;center&quot;&gt;The customer has successfully browsed available products, either through scrolling on the homepage or navigating to the full products listing.&lt;/div&gt;" style="shape=partialRectangle;html=1;whiteSpace=wrap;connectable=0;strokeColor=inherit;overflow=hidden;fillColor=none;top=0;left=0;bottom=0;right=0;pointerEvents=1;rowspan=1;colspan=3;align=center;" parent="qc9Q0B2m5h8A3anUrLEf-12" vertex="1">
          <mxGeometry x="102" width="478" height="40" as="geometry">
            <mxRectangle width="51" height="40" as="alternateBounds" />
          </mxGeometry>
        </mxCell>
        <mxCell id="qc9Q0B2m5h8A3anUrLEf-15" value="" style="shape=partialRectangle;html=1;whiteSpace=wrap;connectable=0;strokeColor=inherit;overflow=hidden;fillColor=none;top=0;left=0;bottom=0;right=0;pointerEvents=1;" parent="qc9Q0B2m5h8A3anUrLEf-12" vertex="1" visible="0">
          <mxGeometry x="153" width="101" height="40" as="geometry">
            <mxRectangle width="101" height="40" as="alternateBounds" />
          </mxGeometry>
        </mxCell>
        <mxCell id="qc9Q0B2m5h8A3anUrLEf-16" value="" style="shape=partialRectangle;html=1;whiteSpace=wrap;connectable=0;strokeColor=inherit;overflow=hidden;fillColor=none;top=0;left=0;bottom=0;right=0;pointerEvents=1;" parent="qc9Q0B2m5h8A3anUrLEf-12" vertex="1" visible="0">
          <mxGeometry x="254" width="326" height="40" as="geometry">
            <mxRectangle width="326" height="40" as="alternateBounds" />
          </mxGeometry>
        </mxCell>
        <mxCell id="qc9Q0B2m5h8A3anUrLEf-17" value="" style="shape=tableRow;horizontal=0;startSize=0;swimlaneHead=0;swimlaneBody=0;strokeColor=inherit;top=0;left=0;bottom=0;right=0;collapsible=0;dropTarget=0;fillColor=none;points=[[0,0.5],[1,0.5]];portConstraint=eastwest;" parent="qc9Q0B2m5h8A3anUrLEf-1" vertex="1">
          <mxGeometry y="200" width="580" height="40" as="geometry" />
        </mxCell>
        <mxCell id="qc9Q0B2m5h8A3anUrLEf-18" value="Basic Flow" style="shape=partialRectangle;html=1;whiteSpace=wrap;connectable=0;strokeColor=inherit;overflow=hidden;fillColor=none;top=0;left=0;bottom=0;right=0;pointerEvents=1;rowspan=5;colspan=1;fontStyle=1" parent="qc9Q0B2m5h8A3anUrLEf-17" vertex="1">
          <mxGeometry width="102" height="200" as="geometry">
            <mxRectangle width="102" height="40" as="alternateBounds" />
          </mxGeometry>
        </mxCell>
        <mxCell id="qc9Q0B2m5h8A3anUrLEf-19" value="Step" style="shape=partialRectangle;html=1;whiteSpace=wrap;connectable=0;strokeColor=inherit;overflow=hidden;fillColor=none;top=0;left=0;bottom=0;right=0;pointerEvents=1;" parent="qc9Q0B2m5h8A3anUrLEf-17" vertex="1">
          <mxGeometry x="102" width="51" height="40" as="geometry">
            <mxRectangle width="51" height="40" as="alternateBounds" />
          </mxGeometry>
        </mxCell>
        <mxCell id="qc9Q0B2m5h8A3anUrLEf-20" value="Performed by" style="shape=partialRectangle;html=1;whiteSpace=wrap;connectable=0;strokeColor=inherit;overflow=hidden;fillColor=none;top=0;left=0;bottom=0;right=0;pointerEvents=1;" parent="qc9Q0B2m5h8A3anUrLEf-17" vertex="1">
          <mxGeometry x="153" width="101" height="40" as="geometry">
            <mxRectangle width="101" height="40" as="alternateBounds" />
          </mxGeometry>
        </mxCell>
        <mxCell id="qc9Q0B2m5h8A3anUrLEf-21" value="Action" style="shape=partialRectangle;html=1;whiteSpace=wrap;connectable=0;strokeColor=inherit;overflow=hidden;fillColor=none;top=0;left=0;bottom=0;right=0;pointerEvents=1;" parent="qc9Q0B2m5h8A3anUrLEf-17" vertex="1">
          <mxGeometry x="254" width="326" height="40" as="geometry">
            <mxRectangle width="326" height="40" as="alternateBounds" />
          </mxGeometry>
        </mxCell>
        <mxCell id="qc9Q0B2m5h8A3anUrLEf-22" value="" style="shape=tableRow;horizontal=0;startSize=0;swimlaneHead=0;swimlaneBody=0;strokeColor=inherit;top=0;left=0;bottom=0;right=0;collapsible=0;dropTarget=0;fillColor=none;points=[[0,0.5],[1,0.5]];portConstraint=eastwest;" parent="qc9Q0B2m5h8A3anUrLEf-1" vertex="1">
          <mxGeometry y="240" width="580" height="40" as="geometry" />
        </mxCell>
        <mxCell id="qc9Q0B2m5h8A3anUrLEf-23" value="" style="shape=partialRectangle;html=1;whiteSpace=wrap;connectable=0;strokeColor=inherit;overflow=hidden;fillColor=none;top=0;left=0;bottom=0;right=0;pointerEvents=1;fontStyle=1" parent="qc9Q0B2m5h8A3anUrLEf-22" vertex="1" visible="0">
          <mxGeometry width="102" height="40" as="geometry">
            <mxRectangle width="102" height="40" as="alternateBounds" />
          </mxGeometry>
        </mxCell>
        <mxCell id="qc9Q0B2m5h8A3anUrLEf-24" value="1" style="shape=partialRectangle;html=1;whiteSpace=wrap;connectable=0;strokeColor=inherit;overflow=hidden;fillColor=none;top=0;left=0;bottom=0;right=0;pointerEvents=1;" parent="qc9Q0B2m5h8A3anUrLEf-22" vertex="1">
          <mxGeometry x="102" width="51" height="40" as="geometry">
            <mxRectangle width="51" height="40" as="alternateBounds" />
          </mxGeometry>
        </mxCell>
        <mxCell id="qc9Q0B2m5h8A3anUrLEf-25" value="Customer" style="shape=partialRectangle;html=1;whiteSpace=wrap;connectable=0;strokeColor=inherit;overflow=hidden;fillColor=none;top=0;left=0;bottom=0;right=0;pointerEvents=1;" parent="qc9Q0B2m5h8A3anUrLEf-22" vertex="1">
          <mxGeometry x="153" width="101" height="40" as="geometry">
            <mxRectangle width="101" height="40" as="alternateBounds" />
          </mxGeometry>
        </mxCell>
        <mxCell id="qc9Q0B2m5h8A3anUrLEf-26" value="Clicks the &quot;See All Products&quot; link to view the full products page." style="shape=partialRectangle;html=1;whiteSpace=wrap;connectable=0;strokeColor=inherit;overflow=hidden;fillColor=none;top=0;left=0;bottom=0;right=0;pointerEvents=1;" parent="qc9Q0B2m5h8A3anUrLEf-22" vertex="1">
          <mxGeometry x="254" width="326" height="40" as="geometry">
            <mxRectangle width="326" height="40" as="alternateBounds" />
          </mxGeometry>
        </mxCell>
        <mxCell id="0q1HO9-gAJCns06K1bvI-16" style="shape=tableRow;horizontal=0;startSize=0;swimlaneHead=0;swimlaneBody=0;strokeColor=inherit;top=0;left=0;bottom=0;right=0;collapsible=0;dropTarget=0;fillColor=none;points=[[0,0.5],[1,0.5]];portConstraint=eastwest;" parent="qc9Q0B2m5h8A3anUrLEf-1" vertex="1">
          <mxGeometry y="280" width="580" height="40" as="geometry" />
        </mxCell>
        <mxCell id="0q1HO9-gAJCns06K1bvI-17" style="shape=partialRectangle;html=1;whiteSpace=wrap;connectable=0;strokeColor=inherit;overflow=hidden;fillColor=none;top=0;left=0;bottom=0;right=0;pointerEvents=1;fontStyle=1" parent="0q1HO9-gAJCns06K1bvI-16" visible="0" vertex="1">
          <mxGeometry width="102" height="40" as="geometry">
            <mxRectangle width="102" height="40" as="alternateBounds" />
          </mxGeometry>
        </mxCell>
        <mxCell id="0q1HO9-gAJCns06K1bvI-18" value="2" style="shape=partialRectangle;html=1;whiteSpace=wrap;connectable=0;strokeColor=inherit;overflow=hidden;fillColor=none;top=0;left=0;bottom=0;right=0;pointerEvents=1;" parent="0q1HO9-gAJCns06K1bvI-16" vertex="1">
          <mxGeometry x="102" width="51" height="40" as="geometry">
            <mxRectangle width="51" height="40" as="alternateBounds" />
          </mxGeometry>
        </mxCell>
        <mxCell id="0q1HO9-gAJCns06K1bvI-19" value="System" style="shape=partialRectangle;html=1;whiteSpace=wrap;connectable=0;strokeColor=inherit;overflow=hidden;fillColor=none;top=0;left=0;bottom=0;right=0;pointerEvents=1;" parent="0q1HO9-gAJCns06K1bvI-16" vertex="1">
          <mxGeometry x="153" width="101" height="40" as="geometry">
            <mxRectangle width="101" height="40" as="alternateBounds" />
          </mxGeometry>
        </mxCell>
        <mxCell id="0q1HO9-gAJCns06K1bvI-20" value="Navigates to the &quot;All Products&quot; page with paginated products." style="shape=partialRectangle;html=1;whiteSpace=wrap;connectable=0;strokeColor=inherit;overflow=hidden;fillColor=none;top=0;left=0;bottom=0;right=0;pointerEvents=1;" parent="0q1HO9-gAJCns06K1bvI-16" vertex="1">
          <mxGeometry x="254" width="326" height="40" as="geometry">
            <mxRectangle width="326" height="40" as="alternateBounds" />
          </mxGeometry>
        </mxCell>
        <mxCell id="0q1HO9-gAJCns06K1bvI-11" style="shape=tableRow;horizontal=0;startSize=0;swimlaneHead=0;swimlaneBody=0;strokeColor=inherit;top=0;left=0;bottom=0;right=0;collapsible=0;dropTarget=0;fillColor=none;points=[[0,0.5],[1,0.5]];portConstraint=eastwest;" parent="qc9Q0B2m5h8A3anUrLEf-1" vertex="1">
          <mxGeometry y="320" width="580" height="40" as="geometry" />
        </mxCell>
        <mxCell id="0q1HO9-gAJCns06K1bvI-12" style="shape=partialRectangle;html=1;whiteSpace=wrap;connectable=0;strokeColor=inherit;overflow=hidden;fillColor=none;top=0;left=0;bottom=0;right=0;pointerEvents=1;fontStyle=1" parent="0q1HO9-gAJCns06K1bvI-11" visible="0" vertex="1">
          <mxGeometry width="102" height="40" as="geometry">
            <mxRectangle width="102" height="40" as="alternateBounds" />
          </mxGeometry>
        </mxCell>
        <mxCell id="0q1HO9-gAJCns06K1bvI-13" value="3" style="shape=partialRectangle;html=1;whiteSpace=wrap;connectable=0;strokeColor=inherit;overflow=hidden;fillColor=none;top=0;left=0;bottom=0;right=0;pointerEvents=1;" parent="0q1HO9-gAJCns06K1bvI-11" vertex="1">
          <mxGeometry x="102" width="51" height="40" as="geometry">
            <mxRectangle width="51" height="40" as="alternateBounds" />
          </mxGeometry>
        </mxCell>
        <mxCell id="0q1HO9-gAJCns06K1bvI-14" value="Customer" style="shape=partialRectangle;html=1;whiteSpace=wrap;connectable=0;strokeColor=inherit;overflow=hidden;fillColor=none;top=0;left=0;bottom=0;right=0;pointerEvents=1;" parent="0q1HO9-gAJCns06K1bvI-11" vertex="1">
          <mxGeometry x="153" width="101" height="40" as="geometry">
            <mxRectangle width="101" height="40" as="alternateBounds" />
          </mxGeometry>
        </mxCell>
        <mxCell id="0q1HO9-gAJCns06K1bvI-15" value="Uses pagination (next/previous) to browse additional products." style="shape=partialRectangle;html=1;whiteSpace=wrap;connectable=0;strokeColor=inherit;overflow=hidden;fillColor=none;top=0;left=0;bottom=0;right=0;pointerEvents=1;" parent="0q1HO9-gAJCns06K1bvI-11" vertex="1">
          <mxGeometry x="254" width="326" height="40" as="geometry">
            <mxRectangle width="326" height="40" as="alternateBounds" />
          </mxGeometry>
        </mxCell>
        <mxCell id="qc9Q0B2m5h8A3anUrLEf-27" value="" style="shape=tableRow;horizontal=0;startSize=0;swimlaneHead=0;swimlaneBody=0;strokeColor=inherit;top=0;left=0;bottom=0;right=0;collapsible=0;dropTarget=0;fillColor=none;points=[[0,0.5],[1,0.5]];portConstraint=eastwest;" parent="qc9Q0B2m5h8A3anUrLEf-1" vertex="1">
          <mxGeometry y="360" width="580" height="40" as="geometry" />
        </mxCell>
        <mxCell id="qc9Q0B2m5h8A3anUrLEf-28" value="" style="shape=partialRectangle;html=1;whiteSpace=wrap;connectable=0;strokeColor=inherit;overflow=hidden;fillColor=none;top=0;left=0;bottom=0;right=0;pointerEvents=1;fontStyle=1" parent="qc9Q0B2m5h8A3anUrLEf-27" vertex="1" visible="0">
          <mxGeometry width="102" height="40" as="geometry">
            <mxRectangle width="102" height="40" as="alternateBounds" />
          </mxGeometry>
        </mxCell>
        <mxCell id="qc9Q0B2m5h8A3anUrLEf-29" value="4" style="shape=partialRectangle;html=1;whiteSpace=wrap;connectable=0;strokeColor=inherit;overflow=hidden;fillColor=none;top=0;left=0;bottom=0;right=0;pointerEvents=1;" parent="qc9Q0B2m5h8A3anUrLEf-27" vertex="1">
          <mxGeometry x="102" width="51" height="40" as="geometry">
            <mxRectangle width="51" height="40" as="alternateBounds" />
          </mxGeometry>
        </mxCell>
        <mxCell id="qc9Q0B2m5h8A3anUrLEf-30" value="System" style="shape=partialRectangle;html=1;whiteSpace=wrap;connectable=0;strokeColor=inherit;overflow=hidden;fillColor=none;top=0;left=0;bottom=0;right=0;pointerEvents=1;" parent="qc9Q0B2m5h8A3anUrLEf-27" vertex="1">
          <mxGeometry x="153" width="101" height="40" as="geometry">
            <mxRectangle width="101" height="40" as="alternateBounds" />
          </mxGeometry>
        </mxCell>
        <mxCell id="qc9Q0B2m5h8A3anUrLEf-31" value="Loads the corresponding product list page dynamically." style="shape=partialRectangle;html=1;whiteSpace=wrap;connectable=0;strokeColor=inherit;overflow=hidden;fillColor=none;top=0;left=0;bottom=0;right=0;pointerEvents=1;" parent="qc9Q0B2m5h8A3anUrLEf-27" vertex="1">
          <mxGeometry x="254" width="326" height="40" as="geometry">
            <mxRectangle width="326" height="40" as="alternateBounds" />
          </mxGeometry>
        </mxCell>
        <mxCell id="0q1HO9-gAJCns06K1bvI-6" style="shape=tableRow;horizontal=0;startSize=0;swimlaneHead=0;swimlaneBody=0;strokeColor=inherit;top=0;left=0;bottom=0;right=0;collapsible=0;dropTarget=0;fillColor=none;points=[[0,0.5],[1,0.5]];portConstraint=eastwest;" parent="qc9Q0B2m5h8A3anUrLEf-1" vertex="1">
          <mxGeometry y="400" width="580" height="40" as="geometry" />
        </mxCell>
        <mxCell id="0q1HO9-gAJCns06K1bvI-7" value="Alternative Flow" style="shape=partialRectangle;html=1;whiteSpace=wrap;connectable=0;strokeColor=inherit;overflow=hidden;fillColor=none;top=0;left=0;bottom=0;right=0;pointerEvents=1;rowspan=2;colspan=1;fontStyle=1" parent="0q1HO9-gAJCns06K1bvI-6" vertex="1">
          <mxGeometry width="102" height="80" as="geometry">
            <mxRectangle width="102" height="40" as="alternateBounds" />
          </mxGeometry>
        </mxCell>
        <mxCell id="0q1HO9-gAJCns06K1bvI-8" value="1a" style="shape=partialRectangle;html=1;whiteSpace=wrap;connectable=0;strokeColor=inherit;overflow=hidden;fillColor=none;top=0;left=0;bottom=0;right=0;pointerEvents=1;" parent="0q1HO9-gAJCns06K1bvI-6" vertex="1">
          <mxGeometry x="102" width="51" height="40" as="geometry">
            <mxRectangle width="51" height="40" as="alternateBounds" />
          </mxGeometry>
        </mxCell>
        <mxCell id="0q1HO9-gAJCns06K1bvI-9" value="Customer" style="shape=partialRectangle;html=1;whiteSpace=wrap;connectable=0;strokeColor=inherit;overflow=hidden;fillColor=none;top=0;left=0;bottom=0;right=0;pointerEvents=1;" parent="0q1HO9-gAJCns06K1bvI-6" vertex="1">
          <mxGeometry x="153" width="101" height="40" as="geometry">
            <mxRectangle width="101" height="40" as="alternateBounds" />
          </mxGeometry>
        </mxCell>
        <mxCell id="0q1HO9-gAJCns06K1bvI-10" value="Scrolls the homepage to browse available products." style="shape=partialRectangle;html=1;whiteSpace=wrap;connectable=0;strokeColor=inherit;overflow=hidden;fillColor=none;top=0;left=0;bottom=0;right=0;pointerEvents=1;" parent="0q1HO9-gAJCns06K1bvI-6" vertex="1">
          <mxGeometry x="254" width="326" height="40" as="geometry">
            <mxRectangle width="326" height="40" as="alternateBounds" />
          </mxGeometry>
        </mxCell>
        <mxCell id="0q1HO9-gAJCns06K1bvI-1" style="shape=tableRow;horizontal=0;startSize=0;swimlaneHead=0;swimlaneBody=0;strokeColor=inherit;top=0;left=0;bottom=0;right=0;collapsible=0;dropTarget=0;fillColor=none;points=[[0,0.5],[1,0.5]];portConstraint=eastwest;" parent="qc9Q0B2m5h8A3anUrLEf-1" vertex="1">
          <mxGeometry y="440" width="580" height="40" as="geometry" />
        </mxCell>
        <mxCell id="0q1HO9-gAJCns06K1bvI-2" value="" style="shape=partialRectangle;html=1;whiteSpace=wrap;connectable=0;strokeColor=inherit;overflow=hidden;fillColor=none;top=0;left=0;bottom=0;right=0;pointerEvents=1;fontStyle=1" parent="0q1HO9-gAJCns06K1bvI-1" visible="0" vertex="1">
          <mxGeometry width="102" height="40" as="geometry">
            <mxRectangle width="102" height="40" as="alternateBounds" />
          </mxGeometry>
        </mxCell>
        <mxCell id="0q1HO9-gAJCns06K1bvI-3" value="2a" style="shape=partialRectangle;html=1;whiteSpace=wrap;connectable=0;strokeColor=inherit;overflow=hidden;fillColor=none;top=0;left=0;bottom=0;right=0;pointerEvents=1;" parent="0q1HO9-gAJCns06K1bvI-1" vertex="1">
          <mxGeometry x="102" width="51" height="40" as="geometry">
            <mxRectangle width="51" height="40" as="alternateBounds" />
          </mxGeometry>
        </mxCell>
        <mxCell id="0q1HO9-gAJCns06K1bvI-4" value="System" style="shape=partialRectangle;html=1;whiteSpace=wrap;connectable=0;strokeColor=inherit;overflow=hidden;fillColor=none;top=0;left=0;bottom=0;right=0;pointerEvents=1;" parent="0q1HO9-gAJCns06K1bvI-1" vertex="1">
          <mxGeometry x="153" width="101" height="40" as="geometry">
            <mxRectangle width="101" height="40" as="alternateBounds" />
          </mxGeometry>
        </mxCell>
        <mxCell id="0q1HO9-gAJCns06K1bvI-5" value="&lt;div&gt;Displays products dynamically as the customer scrolls.&lt;/div&gt;&lt;div&gt;&lt;i&gt;End Use case&lt;/i&gt;&lt;/div&gt;" style="shape=partialRectangle;html=1;whiteSpace=wrap;connectable=0;strokeColor=inherit;overflow=hidden;fillColor=none;top=0;left=0;bottom=0;right=0;pointerEvents=1;" parent="0q1HO9-gAJCns06K1bvI-1" vertex="1">
          <mxGeometry x="254" width="326" height="40" as="geometry">
            <mxRectangle width="326" height="40" as="alternateBounds" />
          </mxGeometry>
        </mxCell>
        <mxCell id="qc9Q0B2m5h8A3anUrLEf-32" value="" style="shape=tableRow;horizontal=0;startSize=0;swimlaneHead=0;swimlaneBody=0;strokeColor=inherit;top=0;left=0;bottom=0;right=0;collapsible=0;dropTarget=0;fillColor=none;points=[[0,0.5],[1,0.5]];portConstraint=eastwest;" parent="qc9Q0B2m5h8A3anUrLEf-1" vertex="1">
          <mxGeometry y="480" width="580" height="50" as="geometry" />
        </mxCell>
        <mxCell id="qc9Q0B2m5h8A3anUrLEf-33" value="Exception Flow" style="shape=partialRectangle;html=1;whiteSpace=wrap;connectable=0;strokeColor=inherit;overflow=hidden;fillColor=none;top=0;left=0;bottom=0;right=0;pointerEvents=1;rowspan=2;colspan=1;fontStyle=1" parent="qc9Q0B2m5h8A3anUrLEf-32" vertex="1">
          <mxGeometry width="102" height="90" as="geometry">
            <mxRectangle width="102" height="50" as="alternateBounds" />
          </mxGeometry>
        </mxCell>
        <mxCell id="qc9Q0B2m5h8A3anUrLEf-34" value="2a" style="shape=partialRectangle;html=1;whiteSpace=wrap;connectable=0;strokeColor=inherit;overflow=hidden;fillColor=none;top=0;left=0;bottom=0;right=0;pointerEvents=1;" parent="qc9Q0B2m5h8A3anUrLEf-32" vertex="1">
          <mxGeometry x="102" width="51" height="50" as="geometry">
            <mxRectangle width="51" height="50" as="alternateBounds" />
          </mxGeometry>
        </mxCell>
        <mxCell id="qc9Q0B2m5h8A3anUrLEf-35" value="System" style="shape=partialRectangle;html=1;whiteSpace=wrap;connectable=0;strokeColor=inherit;overflow=hidden;fillColor=none;top=0;left=0;bottom=0;right=0;pointerEvents=1;" parent="qc9Q0B2m5h8A3anUrLEf-32" vertex="1">
          <mxGeometry x="153" width="101" height="50" as="geometry">
            <mxRectangle width="101" height="50" as="alternateBounds" />
          </mxGeometry>
        </mxCell>
        <mxCell id="qc9Q0B2m5h8A3anUrLEf-36" value="&lt;div&gt;If no products are available, show &quot;No Products Available&quot; message.&lt;/div&gt;&lt;div&gt;&lt;i&gt;End Use case&lt;/i&gt;&lt;/div&gt;" style="shape=partialRectangle;html=1;whiteSpace=wrap;connectable=0;strokeColor=inherit;overflow=hidden;fillColor=none;top=0;left=0;bottom=0;right=0;pointerEvents=1;" parent="qc9Q0B2m5h8A3anUrLEf-32" vertex="1">
          <mxGeometry x="254" width="326" height="50" as="geometry">
            <mxRectangle width="326" height="50" as="alternateBounds" />
          </mxGeometry>
        </mxCell>
        <mxCell id="0q1HO9-gAJCns06K1bvI-32" style="shape=tableRow;horizontal=0;startSize=0;swimlaneHead=0;swimlaneBody=0;strokeColor=inherit;top=0;left=0;bottom=0;right=0;collapsible=0;dropTarget=0;fillColor=none;points=[[0,0.5],[1,0.5]];portConstraint=eastwest;" parent="qc9Q0B2m5h8A3anUrLEf-1" vertex="1">
          <mxGeometry y="530" width="580" height="40" as="geometry" />
        </mxCell>
        <mxCell id="0q1HO9-gAJCns06K1bvI-33" value="" style="shape=partialRectangle;html=1;whiteSpace=wrap;connectable=0;strokeColor=inherit;overflow=hidden;fillColor=none;top=0;left=0;bottom=0;right=0;pointerEvents=1;" parent="0q1HO9-gAJCns06K1bvI-32" visible="0" vertex="1">
          <mxGeometry width="102" height="40" as="geometry">
            <mxRectangle width="102" height="40" as="alternateBounds" />
          </mxGeometry>
        </mxCell>
        <mxCell id="0q1HO9-gAJCns06K1bvI-34" value="3a" style="shape=partialRectangle;html=1;whiteSpace=wrap;connectable=0;strokeColor=inherit;overflow=hidden;fillColor=none;top=0;left=0;bottom=0;right=0;pointerEvents=1;" parent="0q1HO9-gAJCns06K1bvI-32" vertex="1">
          <mxGeometry x="102" width="51" height="40" as="geometry">
            <mxRectangle width="51" height="40" as="alternateBounds" />
          </mxGeometry>
        </mxCell>
        <mxCell id="0q1HO9-gAJCns06K1bvI-35" value="System" style="shape=partialRectangle;html=1;whiteSpace=wrap;connectable=0;strokeColor=inherit;overflow=hidden;fillColor=none;top=0;left=0;bottom=0;right=0;pointerEvents=1;" parent="0q1HO9-gAJCns06K1bvI-32" vertex="1">
          <mxGeometry x="153" width="101" height="40" as="geometry">
            <mxRectangle width="101" height="40" as="alternateBounds" />
          </mxGeometry>
        </mxCell>
        <mxCell id="0q1HO9-gAJCns06K1bvI-36" value="&lt;div&gt;If pagination fails, show error and allow retry.&lt;/div&gt;&lt;div&gt;&lt;i&gt;Falls back to step 4&lt;/i&gt;&lt;/div&gt;" style="shape=partialRectangle;html=1;whiteSpace=wrap;connectable=0;strokeColor=inherit;overflow=hidden;fillColor=none;top=0;left=0;bottom=0;right=0;pointerEvents=1;" parent="0q1HO9-gAJCns06K1bvI-32" vertex="1">
          <mxGeometry x="254" width="326" height="40" as="geometry">
            <mxRectangle width="326" height="40" as="alternateBounds" />
          </mxGeometry>
        </mxCell>
      </root>
    </mxGraphModel>
  </diagram>
</mxfile>
